HIERARCHY
ROOT Hips
{
	OFFSET 0.00000 0.00000 0.00000
	CHANNELS 6 Xposition Yposition Zposition Zrotation Yrotation Xrotation 
	JOINT LHipJoint
	{
		OFFSET 0 0 0
		CHANNELS 3 Zrotation Yrotation Xrotation
		JOINT LeftHip
		{
			OFFSET 1.55020 -1.87941 0.79896
			CHANNELS 3 Zrotation Yrotation Xrotation
			JOINT LeftKnee
			{
				OFFSET 2.65269 -7.28822 0.00000
				CHANNELS 3 Zrotation Yrotation Xrotation
				JOINT LeftAnkle
				{
					OFFSET 2.61200 -7.17641 0.00000
					CHANNELS 3 Zrotation Yrotation Xrotation
					JOINT LeftToe
					{
						OFFSET 0.09338 -0.25656 1.92461
						CHANNELS 3 Zrotation Yrotation Xrotation
						End Site
						{
							OFFSET 0.00000 -0.00000 0.98480
						}
					}
				}
			}
		}
	}
	JOINT RHipJoint
	{
		OFFSET 0 0 0
		CHANNELS 3 Zrotation Yrotation Xrotation
		JOINT RightHip
		{
			OFFSET -1.56866 -1.87941 0.79895
			CHANNELS 3 Zrotation Yrotation Xrotation
			JOINT RightKnee
			{
				OFFSET -2.60199 -7.14892 0.00000
				CHANNELS 3 Zrotation Yrotation Xrotation
				JOINT RightAnkle
				{
					OFFSET -2.62841 -7.22151 0.00000
					CHANNELS 3 Zrotation Yrotation Xrotation
					JOINT RightToe
					{
						OFFSET -0.19532 -0.53663 1.93132
						CHANNELS 3 Zrotation Yrotation Xrotation
						End Site
						{
							OFFSET -0.00000 -0.00000 1.00896
						}
					}
				}
			}
		}
	}
	JOINT lowerback
	{
		OFFSET 0 0 0
		CHANNELS 3 Zrotation Yrotation Xrotation
		JOINT Chest
		{
			OFFSET 0.06381 2.07806 -0.22112
			CHANNELS 3 Zrotation Yrotation Xrotation
			JOINT Chest2
			{
				OFFSET -0.02881 2.08890 0.01825
				CHANNELS 3 Zrotation Yrotation Xrotation
				JOINT lowerneck
				{
					OFFSET 0 0 0
					CHANNELS 3 Zrotation Yrotation Xrotation
					JOINT Neck
					{
						OFFSET 0.02418 1.74325 -0.02023
						CHANNELS 3 Zrotation Yrotation Xrotation
						JOINT Head
						{
							OFFSET -0.01704 1.71677 0.04090
							CHANNELS 3 Zrotation Yrotation Xrotation
							End Site
							{
								OFFSET -0.00946 1.78238 0.01684
							}
						}
					}
				}
				JOINT LeftCollar
				{
					OFFSET 0 0 0
					CHANNELS 3 Zrotation Yrotation Xrotation
					JOINT LeftShoulder
					{
						OFFSET 3.39783 1.34157 0.16610
CHANNELS 3 Zrotation Xrotation Yrotation
						JOINT LeftElbow
						{
OFFSET 0 -5.152180 0.000000
CHANNELS 3 Zrotation Xrotation Yrotation
							JOINT LeftWrist
							{
OFFSET 0 -3.494590 0.000000
CHANNELS 3 Zrotation Xrotation Yrotation
								JOINT lhand
								{
									OFFSET 0 0 0
CHANNELS 3 Zrotation Xrotation Yrotation
									JOINT LFingers
									{
OFFSET 0 -0.512470 0.000000
CHANNELS 3 Zrotation Xrotation Yrotation
										End Site
										{
OFFSET 0 -0.413160 0.000000
										}
									}
								}
								JOINT LThumb
								{
OFFSET 0 0.000000 0.000000
CHANNELS 3 Zrotation Xrotation Yrotation
									End Site
									{
OFFSET 0 -0.419470 0.419470
									}
								}
							}
						}
					}
				}
				JOINT RightCollar
				{
					OFFSET 0 0 0
					CHANNELS 3 Zrotation Yrotation Xrotation
					JOINT RightShoulder
					{
						OFFSET -3.26224 1.05509 0.01188
CHANNELS 3 Zrotation Xrotation Yrotation
						JOINT RightElbow
						{
OFFSET 0 -5.443440 0.000000
CHANNELS 3 Zrotation Xrotation Yrotation
							JOINT RightWrist
							{
OFFSET 0 -3.584030 0.000000
CHANNELS 3 Zrotation Xrotation Yrotation
								JOINT rhand
								{
									OFFSET 0 0 0
CHANNELS 3 Zrotation Xrotation Yrotation
									JOINT RFingers
									{
OFFSET 0 -0.342490 0.000000
CHANNELS 3 Zrotation Xrotation Yrotation
										End Site
										{
OFFSET 0 -0.276120 0.000000
										}
									}
								}
								JOINT RThumb
								{
OFFSET 0 0.000000 0.000000
CHANNELS 3 Zrotation Xrotation Yrotation
									End Site
									{
OFFSET 0 -0.280340 0.280340
									}
								}
							}
						}
					}
				}
			}
		}
	}
}
MOTION
Frames: 7
Frame Time: 0.008333333333333333
41.242200 16.945000 2.963800 39.267800 -88.557300 -41.867000 0.000000 0.000000 0.000000 -26.681700 -2.401100 -3.227700 3.291800 11.153100 32.798100 1.763300 -13.595000 -24.255000 0.970300 -6.271300 -17.573700 0.000000 0.000000 0.000000 19.366300 8.036800 -22.406900 -10.012500 -17.416900 59.530200 -1.118400 4.620400 -18.986100 -1.826600 8.495100 -24.228200 -0.863100 -0.372900 12.400100 -1.578100 -0.781500 2.080000 -1.033700 -0.420300 -4.780500 3.948000 1.706700 3.239400 -1.922100 2.397600 -1.259600 -1.299700 1.201400 -0.861600 -0.000000 0.000000 0.000000 2.873700 6.649700 -39.470900 28.944000 -39.970900 10.724700 15.236600 6.390100 -21.457000 0.000000 0.000000 0.000000 -7.125000 0.000000 0.000000 -13.674800 51.633000 2.269300 -0.000000 0.000000 0.000000 -1.633500 4.301100 19.321800 -8.832200 -14.892700 -1.156600 -19.358200 39.647700 33.277700 0.000000 0.000000 0.000000 7.125000 0.000000 -0.000000 16.501900 64.074700 -7.729500
41.198849 16.966813 2.968272 36.345208 -88.595590 -38.718353 0.000000 0.000000 0.000000 -26.584208 -2.347156 -3.080031 3.198898 11.008138 32.309779 1.736112 -13.616695 -24.084419 0.978735 -6.297585 -17.650438 0.000000 0.000000 0.000000 19.400981 8.179330 -23.036731 -9.882917 -17.342477 59.094920 -1.066692 4.421847 -18.538384 -2.197304 9.209359 -26.494596 -0.917515 -0.241590 11.787570 -1.421093 -0.594010 2.351878 -0.869592 -0.329203 -4.155298 4.023051 1.584100 3.125666 -2.248550 2.224547 -1.501976 -1.415945 1.117012 -0.921390 0.000000 0.000000 0.000000 2.665456 6.102962 -39.669689 29.356368 -40.331168 10.992145 15.198584 6.264636 -21.939280 0.000000 0.000000 0.000000 -7.125000 0.000000 0.000000 -13.919843 52.102137 2.477661 0.000000 0.000000 0.000000 -1.874306 4.139464 18.942975 -8.653184 -14.605404 -1.111719 -18.322003 39.714748 33.988585 0.000000 0.000000 0.000000 7.125000 0.000000 0.000000 18.373269 64.454937 -8.828429
41.155497 16.988626 2.972745 33.422616 -88.633881 -35.569706 0.000000 0.000000 0.000000 -26.486717 -2.293212 -2.932361 3.105997 10.863175 31.821457 1.708924 -13.638391 -23.913838 0.987170 -6.323871 -17.727176 0.000000 0.000000 0.000000 19.435662 8.321860 -23.666563 -9.753333 -17.268054 58.659641 -1.014984 4.223293 -18.090668 -2.568007 9.923618 -28.760993 -0.971930 -0.110281 11.175040 -1.264087 -0.406520 2.623756 -0.705485 -0.238106 -3.530096 4.098102 1.461500 3.011933 -2.575000 2.051495 -1.744351 -1.532189 1.032624 -0.981179 0.000000 0.000000 0.000000 2.457213 5.556224 -39.868478 29.768736 -40.691436 11.259590 15.160568 6.139172 -22.421559 0.000000 0.000000 0.000000 -7.125000 0.000000 0.000000 -14.164887 52.571274 2.686023 0.000000 0.000000 0.000000 -2.115113 3.977828 18.564151 -8.474168 -14.318107 -1.066837 -17.285806 39.781795 34.699470 0.000000 0.000000 0.000000 7.125000 0.000000 0.000000 20.244638 64.835174 -9.927358
41.110235 17.007926 2.977182 29.562393 -88.700379 -31.471678 0.000000 0.000000 0.000000 -26.352753 -2.211042 -2.826968 3.021377 10.728671 31.371059 1.695079 -13.639682 -23.825243 1.035899 -6.466686 -18.147148 0.000000 0.000000 0.000000 19.506302 8.489041 -24.255658 -9.587313 -17.169440 58.097391 -0.964285 4.056752 -17.635501 -2.849505 10.442281 -30.426162 -0.934360 -0.042730 10.791374 -1.142685 -0.298822 2.742704 -0.617541 -0.185286 -3.192368 4.128558 1.399650 2.922885 -2.819924 1.960712 -1.875896 -1.614935 0.989238 -1.008461 0.000000 0.000000 0.000000 2.285352 5.278716 -39.915451 30.270222 -41.118560 11.588847 15.354231 6.081785 -22.758430 0.000000 0.000000 0.000000 -7.125000 0.000000 0.000000 -14.119182 52.938658 2.800064 0.000000 0.000000 0.000000 -2.326225 3.999294 18.358766 -8.310884 -14.055338 -1.026610 -16.320111 39.346307 35.033161 0.000000 0.000000 0.000000 7.125000 0.000000 0.000000 21.655429 64.883909 -10.642971
41.062646 17.024168 2.981576 24.561091 -88.801206 -26.218271 0.000000 0.000000 0.000000 -26.174404 -2.094523 -2.773024 2.946836 10.606895 30.966812 1.697473 -13.616143 -23.836425 1.133665 -6.751314 -18.984831 0.000000 0.000000 0.000000 19.620703 8.686221 -24.795177 -9.376951 -17.041386 57.380622 -0.914814 3.929169 -17.171268 -3.022440 10.722908 -31.359650 -0.784847 -0.052774 10.686232 -1.064613 -0.288229 2.675539 -0.622288 -0.179048 -3.204491 4.104745 1.411734 2.863880 -2.965631 1.970049 -1.872561 -1.656913 0.995750 -0.996181 0.000000 0.000000 0.000000 2.157769 5.328854 -39.777668 30.880163 -41.627047 11.993330 15.829841 6.107246 -22.918339 0.000000 0.000000 0.000000 -7.125000 0.000000 0.000000 -13.719643 53.182210 2.799318 0.000000 0.000000 0.000000 -2.501200 4.243592 18.364455 -8.166746 -13.822417 -0.992046 -15.440214 38.299243 34.907814 0.000000 0.000000 0.000000 7.125000 0.000000 0.000000 22.505705 64.529212 -10.892094
41.015058 17.040410 2.985970 19.559789 -88.902032 -20.964863 0.000000 0.000000 0.000000 -25.996055 -1.978004 -2.719080 2.872295 10.485119 30.562565 1.699866 -13.592604 -23.847606 1.231431 -7.035943 -19.822514 0.000000 0.000000 0.000000 19.735103 8.883402 -25.334696 -9.166589 -16.913333 56.663852 -0.865342 3.801587 -16.707036 -3.195374 11.003534 -32.293137 -0.635333 -0.062817 10.581090 -0.986541 -0.277637 2.608374 -0.627035 -0.172811 -3.216614 4.080931 1.423817 2.804875 -3.111339 1.979386 -1.869226 -1.698891 1.002263 -0.983902 0.000000 0.000000 0.000000 2.030187 5.378993 -39.639885 31.490104 -42.135533 12.397812 16.305451 6.132708 -23.078249 0.000000 0.000000 0.000000 -7.125000 0.000000 0.000000 -13.320104 53.425763 2.798573 0.000000 0.000000 0.000000 -2.676175 4.487890 18.370143 -8.022607 -13.589496 -0.957483 -14.560318 37.252179 34.782468 0.000000 0.000000 0.000000 7.125000 0.000000 0.000000 23.355981 64.174515 -11.141218
40.964815 17.055520 2.989939 11.807123 -88.980066 -12.968162 0.000000 0.000000 0.000000 -25.806239 -1.838728 -2.645139 2.795914 10.355344 30.136870 1.675750 -13.686603 -23.708582 1.245920 -7.077249 -19.944458 0.000000 0.000000 0.000000 19.842319 9.120575 -25.843424 -8.939167 -16.765035 55.874316 -0.808438 3.782411 -16.118151 -3.065316 10.793128 -31.592632 -0.450180 -0.109704 10.554130 -0.928891 -0.313939 2.504542 -0.666679 -0.190250 -3.310634 3.976245 1.425849 2.776307 -3.136855 1.976973 -1.825474 -1.687640 1.002086 -0.965782 0.000000 0.000000 0.000000 1.951941 5.538883 -39.485220 32.175501 -42.676368 12.863205 16.760923 6.183369 -23.431330 0.000000 0.000000 0.000000 -7.125000 0.000000 0.000000 -13.023379 53.861673 2.869922 0.000000 0.000000 0.000000 -2.831649 4.791753 18.769961 -7.897970 -13.387084 -0.928653 -14.236930 36.295471 34.926386 0.000000 0.000000 0.000000 7.125000 0.000000 0.000000 23.865784 64.215150 -11.423822
